<svg width="20" height="20" viewBox="0 0 20 20" fill="none" xmlns="http://www.w3.org/2000/svg">
    <g clip-path="url(#clip0_1382_2222)">
        <path d="M12.0851 14.5846C12.4061 14.5848 12.7147 14.7085 12.9471 14.93C13.1794 15.1515 13.3176 15.4539 13.333 15.7746C13.3484 16.0952 13.2399 16.4095 13.0299 16.6523C12.8199 16.8951 12.5246 17.0478 12.2051 17.0788L12.0851 17.0846H7.91634C7.59533 17.0845 7.28668 16.9608 7.05435 16.7393C6.82203 16.5178 6.68383 16.2153 6.6684 15.8947C6.65298 15.5741 6.7615 15.2598 6.97149 15.017C7.18147 14.7742 7.47683 14.6214 7.79634 14.5905L7.91634 14.5846H12.0851ZM14.583 8.7513C14.9145 8.7513 15.2325 8.883 15.4669 9.11742C15.7013 9.35184 15.833 9.66978 15.833 10.0013C15.833 10.3328 15.7013 10.6508 15.4669 10.8852C15.2325 11.1196 14.9145 11.2513 14.583 11.2513H5.41634C5.08482 11.2513 4.76688 11.1196 4.53246 10.8852C4.29804 10.6508 4.16634 10.3328 4.16634 10.0013C4.16634 9.66978 4.29804 9.35184 4.53246 9.11742C4.76688 8.883 5.08482 8.7513 5.41634 8.7513H14.583ZM16.6663 2.91797C16.9979 2.91797 17.3158 3.04966 17.5502 3.28409C17.7846 3.51851 17.9163 3.83645 17.9163 4.16797C17.9163 4.49949 17.7846 4.81743 17.5502 5.05185C17.3158 5.28627 16.9979 5.41797 16.6663 5.41797H3.33301C3.00149 5.41797 2.68354 5.28627 2.44912 5.05185C2.2147 4.81743 2.08301 4.49949 2.08301 4.16797C2.08301 3.83645 2.2147 3.51851 2.44912 3.28409C2.68354 3.04966 3.00149 2.91797 3.33301 2.91797H16.6663Z" fill="#FCFCFC"/>
    </g>
    <defs>
        <clipPath id="clip0_1382_2222">
            <rect width="20" height="20" fill="white"/>
        </clipPath>
    </defs>
</svg>
