<svg width="144" height="36" viewBox="0 0 144 36" fill="none" xmlns="http://www.w3.org/2000/svg">
    <path
        d="M4.25897 9.37677L4.23876 9.38351L4.25897 9.40035V13.685L4.23539 13.6985L4.25897 13.7119V17.9932L4.23539 18.01L4.25897 18.0201L7.97097 20.1625L7.99792 20.1793L11.7032 22.3216L11.7369 22.3418V26.6096L11.7032 26.6332L7.99792 24.4942V24.4572L7.9676 24.474L4.25897 22.3317V22.3048L4.23539 22.3216L0.52002 20.1726V7.21762L4.23539 5.0753L4.25897 5.08541V5.06183L7.9676 2.91951L7.99792 2.93972V2.90267L11.7032 0.76709L11.7369 0.783932V5.05846L11.7032 5.0753L7.99792 7.21425L7.97097 7.22772L4.25897 9.37677Z"
        fill="#FCFCFC" />
    <path
        d="M22.9537 20.1356L22.9065 20.1625L22.9537 20.1895V24.4472L22.9031 24.4741L22.9537 24.5044V28.7588L22.9031 28.7891L19.2147 30.9145L19.1676 30.9415L15.4758 33.0737L15.4353 33.1007L11.7368 35.2362V30.9213L15.4353 28.7891L15.4758 28.8093V28.7621L19.1709 26.6333L19.2147 26.6535V17.9798L19.1709 18.0101L15.4758 15.8745V15.8308L15.4387 15.8543L11.7368 13.7154V9.40381L15.4353 11.5428L15.4758 11.5663L19.1709 13.6985L19.2147 13.7221L22.9031 15.8543L22.9537 15.8779V20.1356Z"
        fill="#FCFCFC" />
    <path
        d="M49.4168 27.1768C48.2379 27.1768 47.1768 26.9747 46.2337 26.5705C45.2905 26.1495 44.5494 25.56 44.0105 24.8021C43.4716 24.0442 43.2021 23.16 43.2021 22.1495H46.2842C46.3516 22.9074 46.6463 23.5305 47.1684 24.0189C47.7073 24.5074 48.4568 24.7516 49.4168 24.7516C50.4105 24.7516 51.1852 24.5158 51.741 24.0442C52.2968 23.5558 52.5747 22.9326 52.5747 22.1747C52.5747 21.5853 52.3979 21.1053 52.0442 20.7347C51.7073 20.3642 51.2779 20.0779 50.7558 19.8758C50.2505 19.6737 49.5431 19.4547 48.6337 19.2189C47.4884 18.9158 46.5537 18.6126 45.8294 18.3095C45.1221 17.9895 44.5158 17.5011 44.0105 16.8442C43.5052 16.1874 43.2526 15.3116 43.2526 14.2168C43.2526 13.2063 43.5052 12.3221 44.0105 11.5642C44.5158 10.8063 45.2231 10.2253 46.1326 9.82105C47.0421 9.41684 48.0947 9.21473 49.2905 9.21473C50.9916 9.21473 52.381 9.64421 53.4589 10.5032C54.5537 11.3453 55.16 12.5074 55.2779 13.9895H52.0947C52.0442 13.3495 51.741 12.8021 51.1852 12.3474C50.6294 11.8926 49.8968 11.6653 48.9873 11.6653C48.1621 11.6653 47.4884 11.8758 46.9663 12.2968C46.4442 12.7179 46.1831 13.3242 46.1831 14.1158C46.1831 14.6547 46.3431 15.1011 46.6631 15.4547C47 15.7916 47.421 16.0611 47.9263 16.2632C48.4316 16.4653 49.1221 16.6842 49.9979 16.92C51.16 17.24 52.1031 17.56 52.8273 17.88C53.5684 18.2 54.1916 18.6968 54.6968 19.3705C55.2189 20.0274 55.48 20.9116 55.48 22.0232C55.48 22.9158 55.2358 23.7579 54.7473 24.5495C54.2758 25.3411 53.5768 25.9811 52.6505 26.4695C51.741 26.9411 50.6631 27.1768 49.4168 27.1768ZM72.1414 19.6989C72.1414 20.2211 72.1077 20.6926 72.0404 21.1137H61.4046C61.4888 22.2253 61.9014 23.1179 62.6425 23.7916C63.3835 24.4653 64.293 24.8021 65.3709 24.8021C66.9204 24.8021 68.0151 24.1537 68.6551 22.8568H71.7625C71.3414 24.1368 70.5751 25.1895 69.4635 26.0147C68.3688 26.8232 67.0046 27.2274 65.3709 27.2274C64.0404 27.2274 62.8446 26.9326 61.7835 26.3432C60.7393 25.7368 59.9141 24.8947 59.3077 23.8168C58.7183 22.7221 58.4235 21.4589 58.4235 20.0274C58.4235 18.5958 58.7098 17.3411 59.2825 16.2632C59.872 15.1684 60.6888 14.3263 61.733 13.7368C62.7941 13.1474 64.0067 12.8526 65.3709 12.8526C66.6846 12.8526 67.8551 13.1389 68.8825 13.7116C69.9098 14.2842 70.7098 15.0926 71.2825 16.1368C71.8551 17.1642 72.1414 18.3516 72.1414 19.6989ZM69.1351 18.7895C69.1183 17.7284 68.7393 16.8779 67.9983 16.2379C67.2572 15.5979 66.3393 15.2779 65.2446 15.2779C64.2509 15.2779 63.4004 15.5979 62.693 16.2379C61.9856 16.8611 61.5646 17.7116 61.4298 18.7895H69.1351ZM74.5209 20.0274C74.5209 18.5958 74.8072 17.3411 75.3798 16.2632C75.9693 15.1684 76.7777 14.3263 77.8051 13.7368C78.8325 13.1474 80.0114 12.8526 81.342 12.8526C83.0262 12.8526 84.4156 13.2568 85.5104 14.0653C86.622 14.8568 87.3714 15.9937 87.7588 17.4758H84.6514C84.3988 16.7853 83.9946 16.2463 83.4388 15.8589C82.883 15.4716 82.1841 15.2779 81.342 15.2779C80.163 15.2779 79.2198 15.6989 78.5125 16.5411C77.822 17.3663 77.4767 18.5284 77.4767 20.0274C77.4767 21.5263 77.822 22.6968 78.5125 23.5389C79.2198 24.3811 80.163 24.8021 81.342 24.8021C83.0093 24.8021 84.1125 24.0695 84.6514 22.6042H87.7588C87.3546 24.0189 86.5967 25.1474 85.4851 25.9895C84.3735 26.8147 82.9925 27.2274 81.342 27.2274C80.0114 27.2274 78.8325 26.9326 77.8051 26.3432C76.7777 25.7368 75.9693 24.8947 75.3798 23.8168C74.8072 22.7221 74.5209 21.4589 74.5209 20.0274ZM103.741 13.08V27H100.861V25.3579C100.406 25.9305 99.8079 26.3853 99.0668 26.7221C98.3426 27.0421 97.5679 27.2021 96.7426 27.2021C95.6479 27.2021 94.6626 26.9747 93.7868 26.52C92.9279 26.0653 92.2458 25.3916 91.7405 24.4989C91.2521 23.6063 91.0079 22.5284 91.0079 21.2653V13.08H93.8626V20.8358C93.8626 22.0821 94.1742 23.0421 94.7973 23.7158C95.4205 24.3726 96.271 24.7011 97.3489 24.7011C98.4268 24.7011 99.2773 24.3726 99.9005 23.7158C100.541 23.0421 100.861 22.0821 100.861 20.8358V13.08H103.741ZM110.926 15.1011C111.347 14.3937 111.903 13.8463 112.593 13.4589C113.3 13.0547 114.134 12.8526 115.094 12.8526V15.8337H114.361C113.233 15.8337 112.374 16.12 111.785 16.6926C111.212 17.2653 110.926 18.2589 110.926 19.6737V27H108.046V13.08H110.926V15.1011ZM122.162 21.8716C121.556 21.8716 121 21.7284 120.495 21.4421C120.007 21.1389 119.611 20.7432 119.308 20.2547C119.021 19.7495 118.878 19.1937 118.878 18.5874C118.878 17.6611 119.198 16.8779 119.838 16.2379C120.478 15.5979 121.253 15.2779 122.162 15.2779C123.106 15.2779 123.897 15.5979 124.537 16.2379C125.177 16.8779 125.497 17.6611 125.497 18.5874C125.497 19.5137 125.177 20.2968 124.537 20.9368C123.897 21.56 123.106 21.8716 122.162 21.8716ZM129.461 19.9768C129.461 18.5789 129.748 17.3411 130.32 16.2632C130.91 15.1853 131.701 14.3516 132.695 13.7621C133.706 13.1558 134.826 12.8526 136.055 12.8526C136.965 12.8526 137.857 13.0547 138.733 13.4589C139.626 13.8463 140.333 14.3684 140.855 15.0253V8.30526H143.76V27H140.855V24.9032C140.383 25.5768 139.727 26.1326 138.885 26.5705C138.059 27.0084 137.108 27.2274 136.03 27.2274C134.817 27.2274 133.706 26.9242 132.695 26.3179C131.701 25.6947 130.91 24.8358 130.32 23.7411C129.748 22.6295 129.461 21.3747 129.461 19.9768ZM140.855 20.0274C140.855 19.0674 140.653 18.2337 140.249 17.5263C139.861 16.8189 139.348 16.28 138.708 15.9095C138.068 15.5389 137.377 15.3537 136.636 15.3537C135.895 15.3537 135.205 15.5389 134.565 15.9095C133.925 16.2632 133.402 16.7937 132.998 17.5011C132.611 18.1916 132.417 19.0168 132.417 19.9768C132.417 20.9368 132.611 21.7789 132.998 22.5032C133.402 23.2274 133.925 23.7832 134.565 24.1705C135.221 24.5411 135.912 24.7263 136.636 24.7263C137.377 24.7263 138.068 24.5411 138.708 24.1705C139.348 23.8 139.861 23.2611 140.249 22.5537C140.653 21.8295 140.855 20.9874 140.855 20.0274Z"
        fill="#FCFCFC" />
</svg>