<svg width="22" height="22" viewBox="0 0 22 22" fill="none" xmlns="http://www.w3.org/2000/svg">
<path d="M11 0C4.93464 0 0 4.93464 0 11C0 17.0654 4.93464 22 11 22C17.0654 22 22 17.0654 22 11C22 4.93464 17.0654 0 11 0ZM11 1.65C16.1736 1.65 20.35 5.82637 20.35 11C20.35 16.1736 16.1736 20.35 11 20.35C5.82636 20.35 1.65 16.1736 1.65 11C1.65 5.82637 5.82636 1.65 11 1.65ZM11 4.95C9.18727 4.95 7.7 6.43727 7.7 8.25V8.525C7.69845 8.63432 7.71865 8.74286 7.75942 8.84431C7.80018 8.94576 7.86071 9.03809 7.93747 9.11595C8.01423 9.1938 8.1057 9.25563 8.20656 9.29782C8.30742 9.34002 8.41567 9.36175 8.525 9.36175C8.63433 9.36175 8.74258 9.34002 8.84344 9.29782C8.9443 9.25563 9.03577 9.1938 9.11253 9.11595C9.18929 9.03809 9.24982 8.94576 9.29058 8.84431C9.33135 8.74286 9.35155 8.63432 9.35 8.525V8.25C9.35 7.32923 10.0792 6.6 11 6.6C11.9208 6.6 12.65 7.32923 12.65 8.25C12.65 9.5375 12.3152 9.69883 11.7283 10.16C11.4349 10.3905 11.0505 10.6564 10.7218 11.1042C10.3931 11.552 10.175 12.1763 10.175 12.925C10.1735 13.0343 10.1937 13.1429 10.2344 13.2443C10.2752 13.3458 10.3357 13.4381 10.4125 13.5159C10.4892 13.5938 10.5807 13.6556 10.6816 13.6978C10.7824 13.74 10.8907 13.7618 11 13.7618C11.1093 13.7618 11.2176 13.74 11.3184 13.6978C11.4193 13.6556 11.5108 13.5938 11.5875 13.5159C11.6643 13.4381 11.7248 13.3458 11.7656 13.2443C11.8063 13.1429 11.8265 13.0343 11.825 12.925C11.825 12.4557 11.9163 12.2651 12.0517 12.0807C12.187 11.8962 12.4214 11.7132 12.7467 11.4576C13.3973 10.9465 14.3 9.9875 14.3 8.25C14.3 6.43727 12.8127 4.95 11 4.95ZM11 15.4C10.7083 15.4 10.4285 15.5159 10.2222 15.7222C10.0159 15.9285 9.9 16.2083 9.9 16.5C9.9 16.7917 10.0159 17.0715 10.2222 17.2778C10.4285 17.4841 10.7083 17.6 11 17.6C11.2917 17.6 11.5715 17.4841 11.7778 17.2778C11.9841 17.0715 12.1 16.7917 12.1 16.5C12.1 16.2083 11.9841 15.9285 11.7778 15.7222C11.5715 15.5159 11.2917 15.4 11 15.4Z" fill="gray"/>
</svg>
